<svg width="34" height="37" viewBox="0 0 34 37" fill="none" xmlns="http://www.w3.org/2000/svg">
<g clip-path="url(#clip0_210_564)">
<path d="M31.3438 4.625C31.3438 4.16502 31.1758 3.72387 30.877 3.39861C30.5781 3.07335 30.1727 2.89062 29.75 2.89062C29.3273 2.89062 28.9219 3.07335 28.623 3.39861C28.3242 3.72387 28.1562 4.16502 28.1562 4.625C28.1562 5.08498 28.3242 5.52613 28.623 5.85139C28.9219 6.17665 29.3273 6.35938 29.75 6.35938C30.1727 6.35938 30.5781 6.17665 30.877 5.85139C31.1758 5.52613 31.3438 5.08498 31.3438 4.625ZM25.5 4.625C25.5 3.39837 25.9478 2.22199 26.7448 1.35463C27.5418 0.487275 28.6228 0 29.75 0C30.8772 0 31.9582 0.487275 32.7552 1.35463C33.5522 2.22199 34 3.39837 34 4.625C34 5.85163 33.5522 7.02801 32.7552 7.89537C31.9582 8.76272 30.8772 9.25 29.75 9.25C28.6228 9.25 27.5418 8.76272 26.7448 7.89537C25.9478 7.02801 25.5 5.85163 25.5 4.625ZM0 11.5625C0 6.77129 3.56602 2.89062 7.96875 2.89062H17V1.29355C17 0.578125 17.5312 0 18.1887 0C18.4543 0 18.7066 0.0939453 18.9191 0.274609L22.9566 3.69277C23.2223 3.9168 23.375 4.26367 23.375 4.625C23.375 4.98633 23.2223 5.3332 22.9566 5.55723L18.9191 8.97539C18.7133 9.14883 18.4543 9.25 18.1887 9.25C17.5312 9.25 17 8.67188 17 7.95645V6.35938H7.96875C5.32578 6.35938 3.1875 8.68633 3.1875 11.5625C3.1875 14.4387 5.32578 16.7656 7.96875 16.7656H26.0312C30.434 16.7656 34 20.6463 34 25.4375C34 29.7373 31.1246 33.3 27.3594 33.9865C26.7551 35.7426 25.2012 37 23.375 37C21.0309 37 19.125 34.926 19.125 32.375C19.125 29.824 21.0309 27.75 23.375 27.75C25.0949 27.75 26.5824 28.8629 27.2465 30.4672C29.2984 29.8818 30.8125 27.8512 30.8125 25.4375C30.8125 22.5613 28.6742 20.2344 26.0312 20.2344H7.96875C3.56602 20.2344 0 16.3537 0 11.5625ZM8.18789 30.6406H10.625V29.0436C10.625 28.3281 11.1562 27.75 11.8137 27.75C12.0793 27.75 12.3316 27.8439 12.5441 28.0246L16.5816 31.4428C16.8473 31.6668 17 32.0137 17 32.375C17 32.7363 16.8473 33.0832 16.5816 33.3072L12.5441 36.7254C12.3383 36.8988 12.0793 37 11.8137 37C11.1562 37 10.625 36.4219 10.625 35.7064V34.1094H8.18789C7.55703 35.8076 6.02969 37 4.25 37C1.90586 37 0 34.926 0 32.375C0 29.824 1.90586 27.75 4.25 27.75C6.03633 27.75 7.56367 28.9424 8.18789 30.6406ZM5.84375 32.375C5.84375 31.915 5.67584 31.4739 5.37695 31.1486C5.07807 30.8234 4.67269 30.6406 4.25 30.6406C3.82731 30.6406 3.42193 30.8234 3.12305 31.1486C2.82416 31.4739 2.65625 31.915 2.65625 32.375C2.65625 32.835 2.82416 33.2761 3.12305 33.6014C3.42193 33.9266 3.82731 34.1094 4.25 34.1094C4.67269 34.1094 5.07807 33.9266 5.37695 33.6014C5.67584 33.2761 5.84375 32.835 5.84375 32.375ZM23.375 34.1094C23.7977 34.1094 24.2031 33.9266 24.502 33.6014C24.8008 33.2761 24.9688 32.835 24.9688 32.375C24.9688 31.915 24.8008 31.4739 24.502 31.1486C24.2031 30.8234 23.7977 30.6406 23.375 30.6406C22.9523 30.6406 22.5469 30.8234 22.248 31.1486C21.9492 31.4739 21.7812 31.915 21.7812 32.375C21.7812 32.835 21.9492 33.2761 22.248 33.6014C22.5469 33.9266 22.9523 34.1094 23.375 34.1094Z" fill="#3A3B3C"/>
</g>
<defs>
<clipPath id="clip0_210_564">
<rect width="34" height="37" fill="white"/>
</clipPath>
</defs>
</svg>
