<svg width="16" height="22" viewBox="0 0 16 22" fill="none" xmlns="http://www.w3.org/2000/svg">
<g clip-path="url(#clip0_210_601)">
<path d="M13.3333 3.61377H11.6667H11.2667C10.9583 2.1167 9.6125 0.98877 8 0.98877C6.3875 0.98877 5.04167 2.1167 4.73333 3.61377H4.33333H2.66667C1.19583 3.61377 0 4.79092 0 6.23877V19.3638C0 20.8116 1.19583 21.9888 2.66667 21.9888H13.3333C14.8042 21.9888 16 20.8116 16 19.3638V6.23877C16 4.79092 14.8042 3.61377 13.3333 3.61377ZM3.33333 5.58252V6.56689C3.33333 7.1124 3.77917 7.55127 4.33333 7.55127H8H11.6667C12.2208 7.55127 12.6667 7.1124 12.6667 6.56689V5.58252H13.3333C13.7 5.58252 14 5.87783 14 6.23877V19.3638C14 19.7247 13.7 20.02 13.3333 20.02H2.66667C2.3 20.02 2 19.7247 2 19.3638V6.23877C2 5.87783 2.3 5.58252 2.66667 5.58252H3.33333ZM7 4.27002C7 4.00895 7.10536 3.75857 7.29289 3.57396C7.48043 3.38936 7.73478 3.28564 8 3.28564C8.26522 3.28564 8.51957 3.38936 8.70711 3.57396C8.89464 3.75857 9 4.00895 9 4.27002C9 4.53109 8.89464 4.78147 8.70711 4.96608C8.51957 5.15068 8.26522 5.25439 8 5.25439C7.73478 5.25439 7.48043 5.15068 7.29289 4.96608C7.10536 4.78147 7 4.53109 7 4.27002ZM7.1375 10.6397C7.39583 10.3854 7.39583 9.96709 7.1375 9.71279C6.87917 9.4585 6.45417 9.4585 6.19583 9.71279L4.66667 11.2181L4.1375 10.6972C3.87917 10.4429 3.45417 10.4429 3.19583 10.6972C2.9375 10.9515 2.9375 11.3698 3.19583 11.6241L4.19583 12.6085C4.45417 12.8628 4.87917 12.8628 5.1375 12.6085L7.1375 10.6397ZM8 12.145C8 12.506 8.3 12.8013 8.66667 12.8013H11.3333C11.7 12.8013 12 12.506 12 12.145C12 11.7841 11.7 11.4888 11.3333 11.4888H8.66667C8.3 11.4888 8 11.7841 8 12.145ZM6.66667 16.0825C6.66667 16.4435 6.96667 16.7388 7.33333 16.7388H11.3333C11.7 16.7388 12 16.4435 12 16.0825C12 15.7216 11.7 15.4263 11.3333 15.4263H7.33333C6.96667 15.4263 6.66667 15.7216 6.66667 16.0825ZM4.66667 17.0669C4.93188 17.0669 5.18624 16.9632 5.37377 16.7786C5.56131 16.594 5.66667 16.3436 5.66667 16.0825C5.66667 15.8214 5.56131 15.5711 5.37377 15.3865C5.18624 15.2019 4.93188 15.0981 4.66667 15.0981C4.40145 15.0981 4.1471 15.2019 3.95956 15.3865C3.77202 15.5711 3.66667 15.8214 3.66667 16.0825C3.66667 16.3436 3.77202 16.594 3.95956 16.7786C4.1471 16.9632 4.40145 17.0669 4.66667 17.0669Z" fill="#3A3B3C"/>
</g>
<defs>
<clipPath id="clip0_210_601">
<rect width="16" height="21" fill="white" transform="translate(0 0.98877)"/>
</clipPath>
</defs>
</svg>
