<svg width="18" height="19" viewBox="0 0 18 19" fill="none" xmlns="http://www.w3.org/2000/svg">
<g clip-path="url(#clip0_210_597)">
<path d="M1.6875 8.86377C1.6875 5.44658 4.45781 2.67627 7.875 2.67627H8.71875C10.8316 2.67627 12.7863 3.9665 13.6266 5.78057C13.7637 6.07588 13.8902 6.37822 14.0273 6.69111L14.0801 6.81416C14.2312 7.16924 14.393 7.54189 14.5687 7.90752C14.9238 8.63877 15.3598 9.38408 15.9961 10.0204L16.1508 10.1751C16.2527 10.2771 16.3125 10.4177 16.3125 10.5618C16.3125 10.8642 16.0664 11.1103 15.7641 11.1103H14.9062C14.4387 11.1103 14.0625 11.4864 14.0625 11.954V14.4853C14.0625 14.7946 13.8094 15.0478 13.5 15.0478H10.4062C9.93867 15.0478 9.5625 15.4239 9.5625 15.8915V18.1415C9.5625 18.6091 9.93867 18.9853 10.4062 18.9853C10.8738 18.9853 11.25 18.6091 11.25 18.1415V16.7388H13.5C14.741 16.7388 15.75 15.7298 15.75 14.4888V12.8013H15.7641C16.998 12.8013 18 11.7993 18 10.5653C18 9.97119 17.7645 9.40518 17.3461 8.9833L17.1914 8.82861C16.7449 8.38213 16.4039 7.82666 16.0875 7.17275C15.9293 6.8458 15.7816 6.5083 15.6305 6.15322L15.5777 6.03018C15.4441 5.71729 15.3035 5.39033 15.1559 5.07041C14.0414 2.66221 11.4891 0.98877 8.71875 0.98877H7.875C3.52617 0.98877 0 4.51494 0 8.86377C0 10.7481 0.664453 12.4813 1.76836 13.8384C2.08125 14.2251 2.25 14.6259 2.25 15.0021V18.145C2.25 18.6126 2.62617 18.9888 3.09375 18.9888C3.56133 18.9888 3.9375 18.6126 3.9375 18.145V15.0021C3.9375 14.1267 3.5543 13.3567 3.07617 12.7731C2.20781 11.7044 1.6875 10.3474 1.6875 8.86377ZM3.9375 7.64385C3.9375 8.21338 4.16602 8.76182 4.5668 9.16611L7.47422 12.0735C7.69219 12.2915 8.05078 12.2915 8.26875 12.0735L11.1762 9.16611C11.5805 8.76182 11.8055 8.21338 11.8055 7.64385C11.8055 6.45557 10.8422 5.48877 9.65039 5.48877C9.08086 5.48877 8.53242 5.71729 8.12813 6.11807L7.86797 6.37822L7.60781 6.11807C7.20352 5.71377 6.65508 5.48877 6.08555 5.48877C4.89727 5.48877 3.93047 6.45205 3.93047 7.64385H3.9375Z" fill="#3A3B3C"/>
</g>
<defs>
<clipPath id="clip0_210_597">
<rect width="18" height="18" fill="white" transform="translate(0 0.98877)"/>
</clipPath>
</defs>
</svg>
