<svg width="28" height="37" viewBox="0 0 28 37" fill="none" xmlns="http://www.w3.org/2000/svg">
<g clip-path="url(#clip0_210_576)">
<path d="M0 35.2656C0 36.2268 0.780208 37 1.75 37H26.25C27.2198 37 28 36.2268 28 35.2656C28 34.3045 27.2198 33.5312 26.25 33.5312H25.6667V32.1582C25.6667 29.2459 24.5 26.4492 22.4219 24.3896L16.4719 18.5L22.4146 12.6104C24.5 10.5508 25.6667 7.7541 25.6667 4.8418V3.46875H26.25C27.2198 3.46875 28 2.69551 28 1.73438C28 0.773242 27.2198 0 26.25 0H1.75C0.780208 0 0 0.773242 0 1.73438C0 2.69551 0.780208 3.46875 1.75 3.46875H2.33333V4.8418C2.33333 7.7541 3.5 10.5508 5.57812 12.6104L11.5281 18.5L5.57812 24.3896C3.5 26.4492 2.33333 29.2459 2.33333 32.1582V33.5312H1.75C0.780208 33.5312 0 34.3045 0 35.2656ZM19.9427 26.8467C21.3646 28.2559 22.1667 30.1637 22.1667 32.1582V33.5312H5.83333V32.1582C5.83333 30.1637 6.63542 28.2559 8.05729 26.8467L14 20.9498L19.9427 26.8395V26.8467Z" fill="#3A3B3C"/>
</g>
<defs>
<clipPath id="clip0_210_576">
<rect width="28" height="37" fill="white"/>
</clipPath>
</defs>
</svg>
