<svg width="28" height="37" viewBox="0 0 28 37" fill="none" xmlns="http://www.w3.org/2000/svg">
<g clip-path="url(#clip0_210_570)">
<path d="M0 1.73438C0 0.773242 0.780208 0 1.75 0H26.25C27.2198 0 28 0.773242 28 1.73438C28 2.69551 27.2198 3.46875 26.25 3.46875H25.6667V4.8418C25.6667 7.7541 24.5 10.5508 22.4219 12.6104L16.4719 18.5L22.4146 24.3896C24.5 26.4492 25.6667 29.2459 25.6667 32.1582V33.5312H26.25C27.2198 33.5312 28 34.3045 28 35.2656C28 36.2268 27.2198 37 26.25 37H1.75C0.780208 37 0 36.2268 0 35.2656C0 34.3045 0.780208 33.5312 1.75 33.5312H2.33333V32.1582C2.33333 29.2459 3.5 26.4492 5.57812 24.3896L11.5281 18.5L5.57812 12.6104C3.5 10.5508 2.33333 7.7541 2.33333 4.8418V3.46875H1.75C0.780208 3.46875 0 2.69551 0 1.73438ZM19.9427 10.1533C21.3646 8.74414 22.1667 6.83633 22.1667 4.8418V3.46875H5.83333V4.8418C5.83333 6.83633 6.63542 8.74414 8.05729 10.1533L14 16.0502L19.9427 10.1605V10.1533Z" fill="#3A3B3C"/>
</g>
<defs>
<clipPath id="clip0_210_570">
<rect width="28" height="37" fill="white"/>
</clipPath>
</defs>
</svg>
