<svg width="19" height="17" viewBox="0 0 19 17" fill="none" xmlns="http://www.w3.org/2000/svg">
<g clip-path="url(#clip0_210_606)">
<path d="M10.0109 0.189258C9.71407 -0.0630859 9.28195 -0.0630859 8.98507 0.189258L0.27674 7.62676C-0.0564193 7.9123 -0.0960027 8.41367 0.184379 8.74902C0.464761 9.08438 0.96615 9.12422 1.29931 8.84199L2.11077 8.15137V14.3438C2.11077 15.8113 3.29167 17 4.74966 17H14.2497C15.7076 17 16.8885 15.8113 16.8885 14.3438V8.15137L17.6967 8.84199C18.0299 9.12754 18.5313 9.08438 18.8116 8.74902C19.092 8.41367 19.0524 7.90898 18.7193 7.62676L10.0109 0.189258ZM3.6941 14.3438V6.8L9.49966 1.84277L15.3052 6.8V14.3438C15.3052 14.9314 14.8335 15.4062 14.2497 15.4062H12.6663V10.3594C12.6663 9.62559 12.0759 9.03125 11.3469 9.03125H7.65244C6.92344 9.03125 6.33299 9.62559 6.33299 10.3594V15.4062H4.74966C4.1658 15.4062 3.6941 14.9314 3.6941 14.3438ZM7.91632 15.4062V10.625H11.083V15.4062H7.91632Z" fill="#3A3B3C"/>
</g>
<defs>
<clipPath id="clip0_210_606">
<rect width="19" height="17" fill="white"/>
</clipPath>
</defs>
</svg>
