<svg width="23" height="20" viewBox="0 0 23 20" fill="none" xmlns="http://www.w3.org/2000/svg">
<path d="M4.6 5.73877C5.0575 5.73877 5.49626 5.5511 5.81976 5.21705C6.14326 4.883 6.325 4.42994 6.325 3.95752C6.325 3.4851 6.14326 3.03203 5.81976 2.69799C5.49626 2.36394 5.0575 2.17627 4.6 2.17627C4.1425 2.17627 3.70374 2.36394 3.38024 2.69799C3.05674 3.03203 2.875 3.4851 2.875 3.95752C2.875 4.42994 3.05674 4.883 3.38024 5.21705C3.70374 5.5511 4.1425 5.73877 4.6 5.73877ZM4.025 6.92627C1.80047 6.92627 0 8.78545 0 11.0825C0 12.7413 0.941563 14.17 2.3 14.838V16.4263C2.3 17.0831 2.81391 17.6138 3.45 17.6138H5.75C6.38609 17.6138 6.9 17.0831 6.9 16.4263V15.2388C6.9 14.7452 6.51547 14.3481 6.0375 14.3481C5.55953 14.3481 5.175 14.7452 5.175 15.2388V15.8325H4.025V15.2388V13.4575V8.70752H5.175C5.62781 8.70752 6.04828 8.84111 6.40406 9.0749C6.68797 8.54795 7.05453 8.07666 7.48937 7.67959C6.83531 7.20459 6.0375 6.92627 5.175 6.92627H4.025ZM2.3 9.51279V12.656C1.94062 12.2366 1.725 11.6837 1.725 11.0825C1.725 10.4813 1.94062 9.92842 2.3 9.51279ZM17.825 8.70752H18.975V13.4575V15.2388V15.8325H17.825V15.2388C17.825 14.7452 17.4405 14.3481 16.9625 14.3481C16.4845 14.3481 16.1 14.7452 16.1 15.2388V16.4263C16.1 17.0831 16.6139 17.6138 17.25 17.6138H19.55C20.1861 17.6138 20.7 17.0831 20.7 16.4263V14.838C22.0584 14.17 23 12.7413 23 11.0825C23 8.78545 21.1995 6.92627 18.975 6.92627H17.825C16.9625 6.92627 16.1647 7.20459 15.5106 7.67959C15.9419 8.07666 16.312 8.54795 16.5959 9.0749C16.9517 8.84111 17.3722 8.70752 17.825 8.70752ZM21.275 11.0825C21.275 11.6837 21.0594 12.2366 20.7 12.6522V9.51279C21.0594 9.93213 21.275 10.4813 21.275 11.0825ZM20.125 3.95752C20.125 3.4851 19.9433 3.03203 19.6198 2.69799C19.2963 2.36394 18.8575 2.17627 18.4 2.17627C17.9425 2.17627 17.5037 2.36394 17.1802 2.69799C16.8567 3.03203 16.675 3.4851 16.675 3.95752C16.675 4.42994 16.8567 4.883 17.1802 5.21705C17.5037 5.5511 17.9425 5.73877 18.4 5.73877C18.8575 5.73877 19.2963 5.5511 19.6198 5.21705C19.9433 4.883 20.125 4.42994 20.125 3.95752ZM11.5 6.33252C11.7643 6.33252 12.026 6.27877 12.2702 6.17433C12.5143 6.0699 12.7362 5.91682 12.9231 5.72385C13.1099 5.53088 13.2582 5.30179 13.3593 5.04966C13.4604 4.79753 13.5125 4.5273 13.5125 4.25439C13.5125 3.98149 13.4604 3.71126 13.3593 3.45913C13.2582 3.207 13.1099 2.97791 12.9231 2.78494C12.7362 2.59197 12.5143 2.43889 12.2702 2.33446C12.026 2.23002 11.7643 2.17627 11.5 2.17627C11.2357 2.17627 10.974 2.23002 10.7298 2.33446C10.4857 2.43889 10.2638 2.59197 10.0769 2.78494C9.89007 2.97791 9.74183 3.207 9.64069 3.45913C9.53955 3.71126 9.4875 3.98149 9.4875 4.25439C9.4875 4.5273 9.53955 4.79753 9.64069 5.04966C9.74183 5.30179 9.89007 5.53088 10.0769 5.72385C10.2638 5.91682 10.4857 6.0699 10.7298 6.17433C10.974 6.27877 11.2357 6.33252 11.5 6.33252ZM10.925 7.52002C8.70047 7.52002 6.9 9.3792 6.9 11.6763C6.9 13.3351 7.84156 14.7638 9.2 15.4317V17.6138C9.2 18.2706 9.71391 18.8013 10.35 18.8013H12.65C13.2861 18.8013 13.8 18.2706 13.8 17.6138V15.4317C15.1584 14.7638 16.1 13.3351 16.1 11.6763C16.1 9.3792 14.2995 7.52002 12.075 7.52002H10.925ZM10.925 15.8325V14.0513V9.30127H12.075V14.0513V15.8325V17.02H10.925V15.8325ZM9.2 13.246C8.84062 12.8267 8.625 12.2774 8.625 11.6763C8.625 11.0751 8.84062 10.5222 9.2 10.1065V13.2497V13.246ZM13.8 13.246V10.1065C14.1594 10.5259 14.375 11.0751 14.375 11.6763C14.375 12.2774 14.1594 12.8304 13.8 13.246Z" fill="#3A3B3C"/>
</svg>
