<svg width="12" height="20" viewBox="0 0 12 20" fill="none" xmlns="http://www.w3.org/2000/svg">
<g clip-path="url(#clip0_210_589)">
<path d="M4.2 2.77002C4.2 2.2976 4.38964 1.84453 4.72721 1.51049C5.06477 1.17644 5.52261 0.98877 6 0.98877C6.47739 0.98877 6.93523 1.17644 7.27279 1.51049C7.61036 1.84453 7.8 2.2976 7.8 2.77002C7.8 3.24244 7.61036 3.6955 7.27279 4.02955C6.93523 4.3636 6.47739 4.55127 6 4.55127C5.52261 4.55127 5.06477 4.3636 4.72721 4.02955C4.38964 3.6955 4.2 3.24244 4.2 2.77002ZM5.4 7.52373V12.27H6.6V7.52373C6.57375 7.52373 6.54375 7.52002 6.51375 7.52002H5.48625C5.45625 7.52002 5.43 7.52002 5.4 7.52373ZM5.4 14.0513V19.0981C5.4 19.5917 4.99875 19.9888 4.5 19.9888C4.00125 19.9888 3.6 19.5917 3.6 19.0981V9.28643L1.98375 12.1142C1.74 12.5409 1.18875 12.6931 0.757498 12.4519C0.326248 12.2106 0.172498 11.6651 0.416248 11.2384L2.61375 7.39756C3.19875 6.37334 4.2975 5.73877 5.48625 5.73877H6.5175C7.70625 5.73877 8.805 6.37334 9.39 7.39756L11.5837 11.2384C11.8275 11.6651 11.6775 12.2106 11.2425 12.4519C10.8075 12.6931 10.26 12.5446 10.0162 12.1142L8.4 9.28643V19.0981C8.4 19.5917 7.99875 19.9888 7.5 19.9888C7.00125 19.9888 6.6 19.5917 6.6 19.0981V14.0513H5.4Z" fill="#3A3B3C"/>
</g>
<defs>
<clipPath id="clip0_210_589">
<rect width="12" height="19" fill="white" transform="translate(0 0.98877)"/>
</clipPath>
</defs>
</svg>
