<svg width="32" height="37" viewBox="0 0 32 37" fill="none" xmlns="http://www.w3.org/2000/svg">
<path d="M10.2857 1.73438C10.2857 0.773242 11.05 0 12 0H20C20.95 0 21.7143 0.773242 21.7143 1.73438C21.7143 2.69551 20.95 3.46875 20 3.46875H17.7143V7.03867C20.8143 7.4 23.6286 8.72246 25.8429 10.717L27.9286 8.59961C28.6 7.92031 29.6857 7.92031 30.35 8.59961C31.0143 9.27891 31.0214 10.3773 30.35 11.0494L28.1357 13.2896C29.85 15.7395 30.8571 18.7313 30.8571 21.9615C30.8571 30.2648 24.2071 36.9928 16 36.9928C7.79285 36.9928 1.14285 30.2721 1.14285 21.9688C1.14285 14.2508 6.88571 7.89863 14.2857 7.03867V3.46875H12C11.05 3.46875 10.2857 2.69551 10.2857 1.73438ZM16 33.5313C19.031 33.5313 21.9379 32.3131 24.0812 30.1447C26.2245 27.9763 27.4286 25.0353 27.4286 21.9688C27.4286 18.9022 26.2245 15.9612 24.0812 13.7928C21.9379 11.6244 19.031 10.4063 16 10.4063C12.969 10.4063 10.062 11.6244 7.91878 13.7928C5.7755 15.9612 4.57142 18.9022 4.57142 21.9688C4.57142 25.0353 5.7755 27.9763 7.91878 30.1447C10.062 32.3131 12.969 33.5313 16 33.5313ZM17.7143 15.6094V23.125C17.7143 24.0861 16.95 24.8594 16 24.8594C15.05 24.8594 14.2857 24.0861 14.2857 23.125V15.6094C14.2857 14.6482 15.05 13.875 16 13.875C16.95 13.875 17.7143 14.6482 17.7143 15.6094Z" fill="#3A3B3C"/>
</svg>
